HIERARCHY
ROOT root
{
	OFFSET	0	13.1	24.9
	CHANNELS 6  Xposition Yposition Zposition Xrotation Yrotation Zrotation
	JOINT spine_1
	{
		OFFSET	0	9.99999	0
		CHANNELS 3  Xrotation Yrotation Zrotation
		JOINT spine_2
		{
			OFFSET	0	112	-10
			CHANNELS 3  Xrotation Yrotation Zrotation
			JOINT spine_3
			{
				OFFSET	0	206.5	19.3
				CHANNELS 3  Xrotation Yrotation Zrotation
				JOINT spine_4
				{
					OFFSET	0	110.4	14.6
					CHANNELS 3  Xrotation Yrotation Zrotation
					JOINT neck_1
					{
						OFFSET	0	71.8	-50.3
						CHANNELS 3  Xrotation Yrotation Zrotation
						JOINT neck_2
						{
							OFFSET	0	86.2	-25.8
							CHANNELS 3  Xrotation Yrotation Zrotation
							JOINT head_ee
							{
								OFFSET	0	179.8	-8.7
								CHANNELS 3  Xrotation Yrotation Zrotation
								End Site
								{
									OFFSET	1	0	0
								}
							}
						}
					}
					JOINT left_clavicle
					{
						OFFSET	-43.2	22.4	-70.8
						CHANNELS 3  Xrotation Yrotation Zrotation
						JOINT left_shoulder
						{
							OFFSET	-93.9	-5.79999	48.7
							CHANNELS 3  Xrotation Yrotation Zrotation
							JOINT left_elbow
							{
								OFFSET	-291.4	-30.8	15.2
								CHANNELS 3  Xrotation Yrotation Zrotation
								JOINT left_lowarm_twist
								{
									OFFSET	-110.7	-3.89999	13.6
									CHANNELS 3  Xrotation Yrotation Zrotation
									JOINT left_hand
									{
										OFFSET	-110.7	-3.89999	13.6
										CHANNELS 3  Xrotation Yrotation Zrotation
										JOINT left_ee
										{
											OFFSET	-80.8	-5.10001	12.1
											CHANNELS 3  Xrotation Yrotation Zrotation
											End Site
											{
												OFFSET	1	0	0
											}
										}
									}
								}
							}
						}
					}
					JOINT right_clavicle
					{
						OFFSET	43.2	22.4	-70.8
						CHANNELS 3  Xrotation Yrotation Zrotation
						JOINT right_shoulder
						{
							OFFSET	93.9	-5.79999	48.7
							CHANNELS 3  Xrotation Yrotation Zrotation
							JOINT right_elbow
							{
								OFFSET	291.4	-30.8	15.2
								CHANNELS 3  Xrotation Yrotation Zrotation
								JOINT right_lowarm_twist
								{
									OFFSET	110.7	-3.89999	13.6
									CHANNELS 3  Xrotation Yrotation Zrotation
									JOINT right_hand
									{
										OFFSET	110.7	-3.89999	13.6
										CHANNELS 3  Xrotation Yrotation Zrotation
										JOINT right_ee
										{
											OFFSET	80.8	-5.10001	12.1
											CHANNELS 3  Xrotation Yrotation Zrotation
											End Site
											{
												OFFSET	1	0	0
											}
										}
									}
								}
							}
						}
					}
				}
			}
		}
	}
	JOINT left_hip
	{
		OFFSET	-82.8	-127.5	0.300001
		CHANNELS 3  Xrotation Yrotation Zrotation
		JOINT left_knee
		{
			OFFSET	-28.2	-396.7	2.2
			CHANNELS 3  Xrotation Yrotation Zrotation
			JOINT left_ankle
			{
				OFFSET	-11.7	-411.3	35.4
				CHANNELS 3  Xrotation Yrotation Zrotation
				JOINT left_toes
				{
					OFFSET	0	-60	-88.6
					CHANNELS 3  Xrotation Yrotation Zrotation
					JOINT left_foot_ee
					{
						OFFSET	-22.5	-16.5	-42.2
						CHANNELS 3  Xrotation Yrotation Zrotation
						End Site
						{
							OFFSET	1	0	0
						}
					}
				}
			}
		}
	}
	JOINT right_hip
	{
		OFFSET	82.8	-127.5	0.300001
		CHANNELS 3  Xrotation Yrotation Zrotation
		JOINT right_knee
		{
			OFFSET	28.2	-396.7	2.2
			CHANNELS 3  Xrotation Yrotation Zrotation
			JOINT right_ankle
			{
				OFFSET	11.7	-411.3	35.4
				CHANNELS 3  Xrotation Yrotation Zrotation
				JOINT right_toes
				{
					OFFSET	0	-60	-88.6
					CHANNELS 3  Xrotation Yrotation Zrotation
					JOINT right_foot_ee
					{
						OFFSET	22.5	-16.5	-42.2
						CHANNELS 3  Xrotation Yrotation Zrotation
						End Site
						{
							OFFSET	1	0	0
						}
					}
				}
			}
		}
	}
}
MOTION
Frames: 5
Frame Time: 0.02
3144.35 678.896 -1601.89 -18.1921 63.8608 10.335 3.27865 1.24671 5.67616 3.29613 0.883606 5.74368 3.37812 0.000647934 5.81102 3.3322 0.916849 5.73848 -12.7627 16.9268 -3.64484 -13.584 34.4525 1.88488 -0.0 0.0 -0.0 -7.98838 23.7875 -8.26888 -28.2217 -8.48499 72.7447 0.863034 -23.1475 0.176747 -2.92155 -0.112056 0.356179 -0.20418 16.3194 5.39786 -0.0 0.0 -0.0 13.5983 26.9334 -26.9486 14.204 29.9315 -76.3824 1.95125 44.022 -0.788854 13.1709 -0.274749 1.65634 2.58152 22.5356 -7.39183 0.0 0.0 0.0 33.1341 34.2876 -11.5366 3.09584 -0.139811 -0.454395 8.46604 -28.0705 -1.49574 -21.7142 0.0 0.0 -0.0 0.0 -0.0 -17.3424 22.003 12.5956 -9.64914 -0.275436 -1.45348 30.6844 -12.3264 3.98443 1.08824 -0.0 -0.0 0.0 0.0 0.0 
3125.51 684.579 -1594.52 -17.6785 63.2482 9.64781 3.17942 1.2678 5.82779 3.19786 0.895053 5.89632 3.28354 -0.0210915 5.96359 3.23512 0.919351 5.89259 -13.7616 17.1969 -2.66582 -14.7565 34.405 3.2673 -0.0 0.0 -0.0 -7.58596 24.0459 -7.60747 -26.5674 -8.37894 72.0947 0.845935 -22.736 0.170082 -4.62291 -0.185644 0.560853 -0.799754 16.0398 1.62025 -0.0 0.0 -0.0 13.5952 26.947 -26.9398 12.7733 31.1831 -76.7649 1.89996 43.26 -0.753456 13.5514 -0.27699 1.70489 2.4208 21.6789 -6.74831 0.0 0.0 0.0 33.3698 34.3462 -12.0281 0.709288 -0.0298564 -0.104749 9.83374 -29.5772 -1.76157 -22.1264 0.0 0.0 -0.0 0.0 -0.0 -17.638 22.2488 13.6177 -11.8164 -0.303386 -1.78482 28.1335 -14.6368 3.72407 2.28089 -0.0 -0.0 0.0 0.0 0.0 
3103.25 691.044 -1590.68 -15.9012 61.8339 8.01658 2.90249 1.44961 5.94378 2.9215 1.06916 6.02358 3.02891 0.105076 6.11648 2.97833 1.06797 6.02379 -12.5167 18.1447 -1.6161 -13.3989 35.4985 4.15616 -0.0 0.0 -0.0 -7.30598 24.3579 -7.10871 -23.9101 -8.62865 71.3298 0.742787 -20.2013 0.132321 -4.23384 -0.16828 0.514239 -0.959525 18.1515 1.55377 -0.0 0.0 -0.0 13.7511 26.3022 -27.384 11.9095 31.884 -77.105 1.76904 41.2254 -0.665431 11.6005 -0.262094 1.45616 2.48963 21.1369 -7.46592 0.0 0.0 0.0 30.2581 34.5555 -11.0812 1.72018 -0.0746481 -0.253396 15.2882 -29.1007 -2.65221 -25.1638 0.0 0.0 -0.0 0.0 -0.0 -17.9638 22.4226 14.4922 -12.0674 -0.305813 -1.82326 19.7114 -20.6896 2.77166 1.31992 -0.0 -0.0 0.0 0.0 0.0 
3083.18 697.416 -1583.95 -14.0141 62.5744 6.38895 2.53268 1.43015 6.01109 2.55217 1.04548 6.08951 2.66029 0.0312381 6.17819 2.60847 1.00474 6.09634 -13.2067 18.0027 -2.32341 -14.2083 35.7066 3.70035 -0.0 0.0 -0.0 -7.11586 24.2666 -6.87364 -21.5039 -9.10976 69.9163 0.654917 -17.9745 0.103581 -4.41019 -0.176111 0.535381 -0.893744 17.9934 1.8831 -0.0 0.0 -0.0 13.5996 26.2884 -27.0328 11.0348 31.5564 -76.7786 1.56921 37.8566 -0.538156 12.1374 -0.267038 1.52456 2.34674 19.484 -7.30751 0.0 0.0 0.0 27.64 35.3191 -9.28127 -1.43169 0.056297 0.212496 21.7444 -28.0924 -3.59378 -24.8852 0.0 0.0 -0.0 0.0 -0.0 -18.962 23.3013 16.3522 -13.1502 -0.31435 -1.98919 17.3756 -21.711 2.47748 0.953453 -0.0 -0.0 0.0 0.0 0.0 
3064.07 701.645 -1573.13 -13.6474 62.2642 5.80591 2.50111 1.47499 6.0452 2.52077 1.08807 6.12638 2.63431 0.0646056 6.22156 2.58186 1.0445 6.13393 -12.3873 18.6959 -2.74388 -13.339 37.2376 3.25405 -0.0 0.0 -0.0 -6.39138 23.9406 -5.96594 -19.9887 -8.99588 68.8108 0.663939 -18.2059 0.106382 -5.23084 -0.213411 0.633453 -1.09811 18.6769 0.948012 -0.0 0.0 -0.0 13.5109 26.8362 -26.7582 10.145 31.4058 -76.7616 1.39777 34.6974 -0.436682 11.6732 -0.262801 1.46542 2.46894 19.109 -8.30255 0.0 0.0 0.0 25.642 35.7015 -7.46296 -3.18325 0.117914 0.474236 27.044 -29.8506 -4.41608 -25.2871 0.0 0.0 -0.0 0.0 -0.0 -17.9246 24.9644 16.671 -17.7155 -0.315836 -2.68945 15.1436 -24.0433 2.20214 1.39841 -0.0 -0.0 0.0 0.0 0.0 
